<svg xmlns="http://www.w3.org/2000/svg" id="uuid-47f023b4-c36f-412c-88f5-8abaaee5e412" viewBox="0 0 50 70"><defs><style>.uuid-69d07e0e-b832-46b1-9359-0f818e452414{fill:#fff;}.uuid-69d07e0e-b832-46b1-9359-0f818e452414,.uuid-b2a86ca1-ded2-4ebe-966a-8c2090b00a85{stroke-width:0px;}.uuid-b2a86ca1-ded2-4ebe-966a-8c2090b00a85{fill:#c61d23;}</style></defs><polygon class="uuid-69d07e0e-b832-46b1-9359-0f818e452414" points="13.45 14.45 13.45 36 21.81 36 21.81 30.34 24.77 33.31 27.74 30.34 27.74 36 36.09 36 36.09 14.45 27.74 14.45 24.77 18.76 21.81 14.45 13.45 14.45"></polygon><path class="uuid-b2a86ca1-ded2-4ebe-966a-8c2090b00a85" d="M44.66,35.65h0l-18.26,32.67c-.61,1.09-2.19,1.09-2.8,0L5.19,35.38c-.07-.12-.14-.24-.2-.37h-.01c-1.73-3.28-2.72-7.02-2.72-10.99C2.26,11.22,12.44.86,25,.86s22.74,10.36,22.74,23.15c0,4.25-1.12,8.22-3.09,11.64"></path><polygon class="uuid-69d07e0e-b832-46b1-9359-0f818e452414" points="28.28 13.26 25.25 17.96 22.22 13.41 12.75 13.38 12.75 37.05 21.67 37.05 21.67 30.7 25.1 33.9 28.28 30.7 28.28 37.05 37.25 37.05 37.25 13.26 28.28 13.26"></polygon></svg>